<svg xmlns="http://www.w3.org/2000/svg" xmlns:xlink="http://www.w3.org/1999/xlink" width="500" zoomAndPan="magnify" viewBox="0 0 375 374.999991" height="500" preserveAspectRatio="xMidYMid meet" version="1.0"><defs><g/><clipPath id="8bfedc4ba6"><path d="M 97.613281 0 L 277.613281 0 L 277.613281 180 L 97.613281 180 Z M 97.613281 0 " clip-rule="nonzero"/></clipPath></defs><g clip-path="url(#8bfedc4ba6)"><path fill="#4c3575" d="M 221.988281 58.664062 L 223 58.664062 C 226.605469 58.664062 228.410156 60.800781 228.410156 65.082031 L 228.410156 65.714844 C 227.65625 65.796875 227.277344 66.136719 227.277344 66.71875 C 230.046875 66.046875 232.566406 65.714844 234.832031 65.714844 L 238.605469 65.714844 C 249.015625 65.714844 257.28125 70.703125 263.40625 80.691406 L 263.40625 83.964844 C 263.40625 86.734375 257.28125 88.539062 245.027344 89.378906 C 217.332031 95.675781 195.300781 102.640625 178.9375 110.277344 C 165.757812 116.992188 154.976562 123.113281 146.585938 128.65625 L 145.578125 128.65625 L 145.578125 127.019531 C 146.335938 127.019531 171.085938 110.699219 219.851562 78.050781 C 221.527344 79.476562 222.953125 80.1875 224.128906 80.1875 C 226.984375 79.265625 228.410156 77.671875 228.410156 75.402344 C 228.410156 73.304688 227.148438 71.671875 224.636719 70.496094 C 220.691406 70.496094 218.714844 73.011719 218.714844 78.050781 C 218.292969 78.050781 193.539062 94.371094 144.441406 127.019531 C 143.9375 127.019531 143.0625 126.140625 141.800781 124.375 C 150.699219 117.914062 171.675781 103.5625 204.746094 81.324219 C 207.011719 81.996094 208.4375 82.328125 209.023438 82.328125 C 211.542969 81.65625 212.800781 80.230469 212.800781 78.050781 L 212.800781 77.546875 C 212.800781 74.609375 211.371094 73.140625 208.523438 73.140625 C 205.246094 73.644531 203.613281 75.28125 203.613281 78.050781 L 204.242188 80.1875 C 162.695312 108.890625 141.507812 123.242188 140.667969 123.242188 L 140.164062 123.242188 L 138.527344 121.101562 C 140.457031 119.171875 157.496094 106.964844 189.640625 84.46875 L 194.546875 84.46875 C 196.644531 83.128906 197.695312 81.53125 197.695312 79.683594 C 197.695312 77.167969 195.722656 75.742188 191.777344 75.402344 C 190.183594 75.824219 188.921875 77.25 188.003906 79.683594 C 188.757812 81.953125 189.132812 83.378906 189.132812 83.964844 C 154.976562 107.96875 137.5625 119.96875 136.890625 119.96875 L 135.253906 117.828125 L 135.253906 117.324219 C 135.507812 116.738281 148.804688 106.5 175.160156 86.609375 L 177.300781 87.242188 C 180.488281 86.480469 182.082031 84.683594 182.082031 81.824219 C 181.410156 79.308594 179.988281 78.050781 177.800781 78.050781 L 175.664062 78.050781 C 175.160156 78.050781 174.277344 78.929688 173.019531 80.691406 L 173.019531 83.964844 L 174.027344 85.605469 C 172.097656 87.535156 158.835938 97.941406 134.246094 116.820312 C 133.742188 116.820312 132.652344 115.734375 130.972656 113.546875 C 143.3125 102.640625 153.003906 94.582031 160.054688 89.378906 C 163.496094 89.378906 165.632812 88.289062 166.476562 86.105469 L 166.476562 85.097656 C 166.476562 82.164062 165.046875 80.527344 162.195312 80.1875 L 161.691406 80.1875 C 158.835938 80.1875 157.414062 81.996094 157.414062 85.605469 L 158.921875 88.246094 C 154.304688 92.523438 144.824219 100.625 130.46875 112.542969 L 129.96875 112.542969 C 129.378906 112.542969 128.625 111.789062 127.703125 110.277344 C 138.695312 97.773438 144.988281 91.519531 146.585938 91.519531 C 149.4375 91.519531 150.863281 90.09375 150.863281 87.242188 L 150.863281 85.605469 C 149.6875 83.421875 148.261719 82.328125 146.585938 82.328125 C 143.730469 82.328125 142.132812 84.136719 141.800781 87.742188 L 143.9375 91.519531 C 132.777344 103.351562 127.027344 109.269531 126.695312 109.269531 L 126.191406 108.136719 C 129.714844 105.113281 131.480469 101.546875 131.480469 97.4375 C 131.480469 94.417969 130.046875 89.210938 127.199219 81.824219 C 127.199219 80.988281 131.6875 80.277344 140.667969 79.683594 L 140.667969 78.550781 C 139.238281 78.550781 138.527344 76.582031 138.527344 72.636719 C 140.542969 70.875 142.683594 69.992188 144.949219 69.992188 C 148.554688 69.992188 150.359375 72.132812 150.359375 76.414062 L 150.359375 76.917969 C 149.605469 77.085938 149.226562 77.460938 149.226562 78.050781 L 149.859375 78.050781 C 152.289062 77.71875 154.265625 77.546875 155.773438 77.546875 L 156.78125 77.546875 L 156.78125 76.414062 C 155.019531 76.414062 154.136719 74.988281 154.136719 72.132812 L 154.136719 71.003906 C 155.226562 68.90625 157.203125 67.851562 160.054688 67.851562 L 162.195312 67.851562 C 164.710938 67.851562 165.96875 70.164062 165.96875 74.777344 C 165.300781 75.199219 164.753906 75.402344 164.335938 75.402344 L 164.335938 75.910156 L 165.46875 75.910156 C 166.890625 75.910156 169.199219 75.53125 172.390625 74.777344 L 172.390625 74.273438 C 170.632812 74.273438 169.75 72.679688 169.75 69.488281 L 169.75 68.355469 C 169.75 67.433594 171.554688 66.550781 175.160156 65.714844 L 177.800781 65.714844 C 180.320312 65.714844 181.582031 68.023438 181.582031 72.636719 C 180.910156 72.972656 180.367188 73.140625 179.945312 73.140625 L 179.945312 73.765625 L 181.078125 73.765625 C 181.332031 73.765625 183.847656 73.390625 188.628906 72.636719 L 188.628906 72.132812 C 186.449219 72.132812 185.355469 70.496094 185.355469 67.222656 L 185.355469 66.214844 C 187.035156 64.03125 189.34375 62.945312 192.28125 62.945312 C 195.554688 62.945312 197.191406 65.292969 197.191406 69.992188 C 196.351562 70.664062 195.636719 71.003906 195.050781 71.003906 L 195.050781 71.628906 L 196.058594 71.628906 C 196.308594 71.628906 198.828125 71.253906 203.613281 70.496094 L 203.613281 69.992188 C 201.847656 69.992188 200.964844 68.355469 200.964844 65.082031 L 200.964844 64.078125 C 202.394531 61.894531 204.535156 60.800781 207.386719 60.800781 C 210.996094 60.800781 212.800781 62.945312 212.800781 67.222656 L 212.800781 67.851562 C 211.960938 68.523438 211.246094 68.859375 210.660156 68.859375 L 210.660156 69.488281 L 211.160156 69.488281 C 214.351562 68.734375 216.871094 68.355469 218.714844 68.355469 L 218.714844 67.222656 C 217.289062 67.222656 216.578125 65.796875 216.578125 62.945312 L 216.578125 61.9375 C 218.003906 59.753906 219.808594 58.664062 221.988281 58.664062 Z M 104.035156 90.386719 L 104.035156 91.519531 C 104.035156 100.582031 106.214844 110.820312 110.578125 122.238281 L 111.082031 122.238281 L 122.917969 110.90625 C 123.585938 110.988281 123.925781 111.328125 123.925781 111.910156 L 112.09375 124.375 L 112.09375 125.382812 L 125.058594 113.046875 C 125.644531 113.046875 126.355469 113.761719 127.199219 115.183594 L 127.199219 115.6875 C 118.636719 123.996094 114.359375 128.65625 114.359375 129.664062 L 128.332031 116.195312 C 128.75 116.195312 129.632812 117.117188 130.972656 118.964844 L 130.972656 119.46875 L 117 134.070312 L 117 134.574219 L 117.503906 134.574219 L 132.109375 120.601562 L 132.609375 120.601562 C 133.199219 120.601562 133.910156 121.3125 134.753906 122.738281 L 119.644531 138.347656 L 119.644531 138.851562 L 135.253906 123.746094 L 135.886719 123.746094 C 136.390625 123.746094 137.101562 124.457031 138.027344 125.882812 C 138.027344 126.472656 132.988281 131.886719 122.917969 142.121094 L 122.917969 142.628906 L 139.03125 127.019531 C 139.535156 127.019531 140.457031 127.902344 141.800781 129.664062 C 141.800781 130 136.597656 135.203125 126.191406 145.273438 L 126.191406 146.40625 L 142.304688 130.796875 L 143.3125 130.796875 L 143.3125 131.804688 L 127.703125 148.042969 C 144.902344 164.910156 165.214844 173.34375 188.628906 173.34375 C 212.128906 173.34375 232.945312 163.488281 251.070312 143.765625 C 264.332031 127.648438 270.960938 109.519531 270.960938 89.378906 C 270.960938 67.894531 262.859375 48.507812 246.664062 31.21875 C 229.457031 14.6875 209.734375 6.421875 187.496094 6.421875 C 165.925781 6.421875 146.75 14.140625 129.96875 29.582031 C 112.675781 46.789062 104.035156 67.054688 104.035156 90.386719 Z M 186.363281 0 L 189.640625 0 C 221.023438 0 246.664062 15.445312 266.554688 46.324219 C 273.769531 61.179688 277.378906 74.105469 277.378906 85.097656 L 277.378906 92.523438 C 277.378906 119.550781 264.832031 143.257812 239.738281 163.648438 C 222.789062 174.398438 206.253906 179.765625 190.140625 179.765625 L 182.714844 179.765625 C 162.320312 179.765625 142.386719 170.785156 122.917969 152.828125 C 106.050781 133.863281 97.613281 114.140625 97.613281 93.660156 L 97.613281 87.742188 C 97.613281 59.628906 110.371094 35.75 135.886719 16.109375 C 151.578125 5.371094 168.40625 0 186.363281 0 " fill-opacity="1" fill-rule="nonzero"/></g><g fill="#4c3575" fill-opacity="1"><g transform="translate(30.410159, 314.999979)"><g><path d="M 83.519531 -79.558594 L 83.160156 -80.398438 L 82.679688 -82.320312 L 82.558594 -83.28125 C 81.71875 -85.800781 80.28125 -88.320312 78.839844 -90.238281 C 74.160156 -97.679688 64.320312 -103.078125 55.921875 -104.398438 L 54.238281 -104.878906 L 52.558594 -105.121094 L 51 -105.121094 C 50.398438 -105.121094 49.921875 -105.238281 49.441406 -105.238281 L 48.71875 -105.359375 L 47.878906 -105.238281 L 44.761719 -105.238281 C 44.160156 -105.238281 43.441406 -105.121094 42.960938 -105 L 40.078125 -104.761719 L 36.960938 -104.039062 C 32.640625 -103.078125 28.558594 -102.121094 24.71875 -100.320312 L 24.839844 -100.320312 L 23.398438 -99.839844 L 22.199219 -99.238281 C 22.441406 -99.359375 21 -98.640625 19.558594 -98.160156 C 11.398438 -94.078125 4.558594 -89.519531 -1.921875 -83.039062 L -3.480469 -81.359375 L -6.238281 -77.519531 C -6.601562 -76.921875 -6.238281 -75.960938 -5.761719 -75.601562 C -5.519531 -75.480469 -5.28125 -75.480469 -5.039062 -75.480469 C -4.679688 -75.480469 -4.320312 -75.601562 -3.960938 -75.960938 L -3.359375 -76.921875 C -3 -77.761719 -2.640625 -78.121094 -2.160156 -78.601562 C 2.039062 -85.320312 12.839844 -92.640625 19.921875 -95.640625 L 25.558594 -98.039062 C 29.28125 -99.601562 33.480469 -100.679688 37.320312 -101.519531 L 40.441406 -102.121094 L 40.320312 -102.121094 L 43.320312 -102.359375 L 44.039062 -102.359375 C 44.28125 -102.359375 44.519531 -102.480469 44.878906 -102.480469 L 49.320312 -102.480469 C 50.160156 -102.359375 51 -102.359375 52.078125 -102 C 53.160156 -101.878906 54.121094 -101.519531 55.078125 -101.160156 C 57.359375 -100.558594 59.039062 -99.71875 60.601562 -98.761719 C 63.601562 -97.199219 67.320312 -93.601562 69.238281 -90.839844 C 70.558594 -89.28125 71.519531 -87.359375 72.121094 -85.800781 C 72.960938 -84.121094 73.441406 -82.679688 73.800781 -80.761719 L 74.160156 -79.320312 L 74.160156 -78.480469 C 74.160156 -78.238281 74.28125 -78 74.28125 -77.761719 C 74.398438 -76.800781 74.519531 -75.839844 74.519531 -75.121094 C 74.519531 -74.160156 74.519531 -73.199219 74.398438 -72.359375 C 74.398438 -72.121094 74.28125 -71.640625 74.28125 -71.398438 L 74.28125 -70.800781 C 74.28125 -70.679688 74.039062 -69.601562 74.039062 -69.480469 C 72.480469 -61.320312 68.878906 -54.601562 64.320312 -47.761719 L 60.480469 -42.601562 L 60.601562 -42.839844 C 51.839844 -31.679688 41.398438 -20.878906 27.960938 -15.601562 C 26.160156 -14.761719 24 -14.160156 22.078125 -13.679688 C 21.960938 -13.679688 21.121094 -13.441406 21 -13.441406 C 19.679688 -15.960938 19.078125 -17.640625 18.71875 -28.558594 L 18.71875 -37.199219 C 18.839844 -48.480469 19.921875 -60.121094 20.878906 -68.761719 L 22.558594 -81 C 22.558594 -81.359375 22.679688 -81.71875 22.679688 -82.078125 C 22.800781 -82.679688 22.800781 -82.921875 22.800781 -82.921875 C 23.28125 -85.679688 21.71875 -88.558594 18.960938 -89.28125 C 18.71875 -89.28125 18.480469 -89.398438 18.238281 -89.398438 C 15.960938 -89.398438 13.921875 -87.480469 13.441406 -84.71875 C 13.441406 -84.71875 13.320312 -84.121094 13.199219 -83.761719 C 13.199219 -83.519531 13.078125 -83.28125 13.078125 -83.039062 L 12.359375 -78.480469 C 10.199219 -64.921875 9.238281 -51 9.121094 -37.320312 L 9.121094 -28.320312 L 9.480469 -19.441406 L 10.199219 -11.398438 C 10.441406 -9 10.679688 -6.238281 11.039062 -4.199219 L 11.640625 -0.71875 C 11.640625 -0.121094 11.761719 0.480469 11.878906 0.839844 L 12.359375 3.359375 L 14.039062 9.601562 C 14.28125 10.199219 14.398438 10.800781 14.398438 10.921875 C 15.121094 13.320312 17.160156 14.761719 19.320312 14.761719 C 19.679688 14.761719 20.039062 14.761719 20.398438 14.640625 C 22.921875 13.679688 24.359375 10.558594 23.640625 7.800781 L 23.28125 6.960938 C 23.28125 6.601562 23.160156 6.121094 23.039062 5.640625 L 21.960938 0.960938 C 21.839844 0.601562 21.71875 0.121094 21.71875 -0.238281 L 21.359375 -1.558594 L 20.878906 -4.679688 L 22.679688 -2.761719 C 28.679688 1.800781 36.601562 6.480469 44.28125 6.960938 C 44.519531 6.960938 44.878906 6.960938 45.121094 6.960938 C 45.960938 6.960938 46.679688 6.960938 47.28125 6.839844 C 48.71875 6.71875 49.320312 6.601562 50.039062 6.359375 L 53.28125 4.441406 C 54.121094 3.839844 54.839844 3.238281 55.558594 2.398438 C 56.039062 1.921875 56.039062 0.960938 55.558594 0.480469 C 55.320312 0.359375 54.960938 0.238281 54.601562 0.238281 C 54.121094 0.238281 53.640625 0.359375 53.519531 0.601562 C 52.558594 2.039062 51.238281 3 49.558594 3.839844 L 49.679688 3.71875 C 48.480469 4.078125 47.398438 4.320312 46.199219 4.320312 C 45.71875 4.320312 45.121094 4.320312 44.640625 4.199219 C 41.398438 3.839844 38.039062 2.039062 35.398438 0.121094 C 32.878906 -1.441406 31.199219 -3 29.519531 -4.558594 C 28.679688 -5.039062 27.480469 -6.359375 26.28125 -7.558594 L 24.359375 -9.839844 C 26.160156 -9.960938 27.71875 -10.320312 29.160156 -10.679688 L 29.039062 -10.679688 C 41.398438 -13.199219 53.640625 -23.039062 62.519531 -31.320312 L 64.679688 -33.839844 L 69.359375 -38.761719 L 70.800781 -40.679688 L 70.679688 -40.441406 C 77.039062 -48.359375 82.320312 -57.601562 83.761719 -67.679688 C 84 -70.199219 84.238281 -72.839844 84 -75.601562 L 83.761719 -77.519531 C 83.640625 -78.238281 83.519531 -78.839844 83.519531 -79.558594 Z M 83.519531 -79.558594 "/></g></g></g><g fill="#4c3575" fill-opacity="1"><g transform="translate(119.450199, 314.999979)"><g><path d="M 42.121094 11.398438 C 42.121094 11.398438 41.519531 11.519531 40.320312 11.519531 C 39.71875 11.640625 39 11.640625 38.28125 11.640625 C 36.601562 11.640625 34.679688 11.640625 33 11.878906 L 29.878906 11.878906 C 23.519531 11.878906 17.160156 11.761719 10.800781 11.28125 C 10.921875 10.800781 10.800781 11.039062 10.800781 10.558594 C 10.800781 10.441406 10.558594 3 10.199219 -6.601562 C 10.078125 -11.878906 9.960938 -18.960938 9.71875 -25.558594 C 9.71875 -26.160156 9.601562 -27 9.601562 -27.71875 C 11.878906 -27.960938 13.441406 -27.960938 15.839844 -28.078125 C 19.558594 -28.441406 23.398438 -28.558594 27.121094 -28.558594 C 29.640625 -28.679688 31.679688 -28.800781 32.28125 -28.800781 C 32.878906 -28.921875 33.601562 -29.398438 33.601562 -30.121094 C 33.601562 -31.078125 32.878906 -31.441406 32.28125 -31.441406 C 32.28125 -31.441406 29.761719 -31.441406 27.121094 -31.320312 C 23.398438 -31.320312 19.441406 -31.078125 15.71875 -30.839844 L 11.878906 -30.601562 C 11.160156 -30.480469 10.320312 -30.359375 9.601562 -30.359375 L 9.359375 -40.441406 C 9.359375 -41.761719 9.238281 -42.960938 9.238281 -44.28125 C 8.878906 -57.839844 8.640625 -71.640625 8.519531 -81.839844 C 8.519531 -84.839844 8.398438 -87.480469 8.398438 -89.878906 C 8.28125 -93.238281 8.28125 -95.761719 8.28125 -97.320312 C 8.519531 -97.320312 8.519531 -97.320312 8.640625 -97.320312 C 8.761719 -97.320312 8.761719 -97.320312 9.238281 -97.320312 C 9.71875 -97.320312 10.320312 -97.441406 10.921875 -97.441406 C 14.28125 -97.679688 18.480469 -97.921875 22.679688 -98.039062 L 33.121094 -98.039062 C 34.078125 -98.039062 35.039062 -98.039062 36 -97.921875 C 36.960938 -97.921875 37.921875 -97.800781 38.761719 -97.800781 L 40.320312 -97.800781 C 41.519531 -97.679688 42.238281 -97.679688 42.238281 -97.679688 C 42.839844 -97.679688 43.441406 -98.039062 43.441406 -99 C 43.441406 -99.480469 43.199219 -100.199219 42.238281 -100.199219 C 42.238281 -100.199219 41.519531 -100.199219 40.679688 -100.320312 C 40.078125 -100.441406 39 -100.441406 38.28125 -100.441406 C 37.558594 -100.441406 36.960938 -100.558594 36.121094 -100.558594 L 33.238281 -100.558594 C 32.28125 -100.679688 31.078125 -100.679688 29.878906 -100.679688 C 22.921875 -100.679688 16.078125 -100.441406 9.121094 -99.960938 C 8.761719 -99.960938 8.398438 -99.839844 8.160156 -99.839844 C 7.800781 -102 5.761719 -103.800781 3.480469 -103.800781 C 0.839844 -103.800781 -1.320312 -101.519531 -1.320312 -99 C -1.320312 -99 -1.199219 -92.039062 -1.078125 -81.71875 C -0.960938 -71.761719 -0.71875 -57.238281 -0.359375 -44.039062 L 0 -29.28125 C -0.480469 -29.160156 -0.601562 -29.28125 -0.601562 -29.28125 C -1.320312 -29.039062 -1.921875 -28.320312 -1.921875 -27.71875 C -1.679688 -27.121094 -0.960938 -26.640625 -0.238281 -26.640625 L 0 -26.640625 C 0 -25.199219 0.121094 -24.960938 0.121094 -23.519531 C 0.359375 -17.28125 0.480469 -11.398438 0.601562 -6.359375 C 0.960938 3.960938 1.199219 10.800781 1.199219 10.800781 C 1.320312 13.558594 3.359375 15.480469 6.238281 15.480469 C 7.558594 15.359375 8.640625 15 9.601562 13.921875 C 13.320312 14.28125 17.761719 14.398438 22.679688 14.519531 L 33.121094 14.519531 C 34.199219 14.519531 35.398438 14.519531 36.238281 14.398438 C 37.320312 14.398438 38.039062 14.28125 38.878906 14.28125 L 40.679688 14.28125 C 41.761719 14.160156 42.238281 14.160156 42.238281 14.160156 C 43.199219 14.160156 43.441406 13.558594 43.441406 12.71875 C 43.441406 12.121094 42.839844 11.398438 42.238281 11.398438 Z M 42.121094 11.398438 "/></g></g></g><g fill="#4c3575" fill-opacity="1"><g transform="translate(176.090222, 314.999979)"><g><path d="M 39.839844 9.601562 C 39.601562 9.359375 39.359375 9.238281 39.121094 9.238281 C 38.640625 9.238281 38.28125 9.480469 37.921875 9.601562 L 37.558594 10.078125 C 37.441406 10.199219 37.441406 10.199219 37.078125 10.199219 C 36.71875 10.558594 36.121094 10.800781 35.761719 10.921875 C 34.320312 11.640625 26.640625 11.761719 24.960938 11.761719 C 20.039062 11.761719 15.121094 11.519531 10.199219 10.921875 C 9.839844 10.921875 9.601562 10.921875 9.359375 10.921875 C 9.238281 10.921875 9.121094 10.921875 9 10.921875 C 9.359375 10.199219 9.480469 9.359375 9.480469 8.761719 C 9.480469 8.761719 9.480469 6.480469 9.359375 4.078125 C 9.359375 2.039062 9.359375 -2.039062 9.238281 -5.160156 C 9.238281 -6 9.121094 -6.960938 9.121094 -7.921875 C 9 -15 9 -23.640625 9 -32.878906 L 9 -44.519531 C 9 -50.761719 9.121094 -57.839844 9.359375 -63.839844 L 9.71875 -72.839844 C 9.71875 -74.039062 9.71875 -75.601562 9.960938 -76.800781 C 9.960938 -78 9.960938 -79.558594 10.199219 -80.761719 C 10.320312 -81.71875 10.441406 -82.921875 10.441406 -84.121094 L 11.519531 -92.398438 L 11.519531 -92.28125 C 11.640625 -92.519531 11.761719 -93 11.761719 -93.359375 L 12.359375 -96.238281 C 12.960938 -99 11.398438 -101.640625 8.878906 -102.359375 C 8.519531 -102.480469 8.039062 -102.480469 7.679688 -102.480469 C 5.519531 -102.480469 3.480469 -101.160156 2.878906 -99 C 2.878906 -99 2.761719 -98.640625 2.640625 -97.558594 C 2.640625 -97.078125 2.28125 -95.878906 2.039062 -94.679688 C 2.039062 -94.441406 1.800781 -93.960938 1.800781 -93.71875 L 1.078125 -88.320312 L 1.078125 -88.441406 C 0.960938 -87.960938 0.960938 -87.238281 0.960938 -86.640625 L 0.960938 -84.960938 L 0.71875 -82.558594 C 0.71875 -82.199219 0.601562 -81.839844 0.601562 -81.480469 C 0.480469 -81 0.480469 -80.160156 0.480469 -79.441406 C 0.480469 -78.839844 0.359375 -78 0.359375 -77.519531 C 0.238281 -76.921875 0.238281 -75.839844 0.238281 -75.238281 C 0.238281 -74.761719 0.121094 -73.800781 0.121094 -73.199219 L -0.238281 -64.078125 C -0.480469 -57.839844 -0.601562 -51.121094 -0.601562 -44.519531 L -0.601562 -32.878906 C -0.601562 -24.71875 -0.601562 -14.398438 -0.480469 -7.800781 C -0.480469 -6.960938 -0.359375 -6.121094 -0.359375 -5.28125 C -0.238281 -0.601562 -0.121094 4.199219 -0.121094 8.878906 C -0.121094 11.519531 2.039062 13.679688 4.800781 13.679688 C 5.28125 13.679688 5.761719 13.558594 6.238281 13.320312 C 12.71875 14.039062 19.320312 14.519531 25.921875 14.519531 C 28.078125 14.519531 34.558594 14.28125 36.601562 13.441406 C 37.320312 13.320312 38.039062 12.960938 38.398438 12.71875 L 38.28125 12.71875 L 39.121094 12.238281 C 39.71875 11.878906 39.839844 11.878906 39.839844 11.519531 C 40.441406 10.800781 40.320312 10.078125 39.839844 9.601562 Z M 39.839844 9.601562 "/></g></g></g><g fill="#4c3575" fill-opacity="1"><g transform="translate(221.450238, 314.999979)"><g><path d="M 40.558594 -99.238281 C 40.320312 -99.480469 39.839844 -99.960938 39.121094 -100.320312 L 39.238281 -100.320312 C 38.519531 -100.679688 37.921875 -101.160156 37.078125 -101.398438 L 34.441406 -102.238281 L 34.558594 -102.238281 C 31.320312 -103.078125 26.878906 -103.558594 22.441406 -103.800781 C 21.359375 -104.761719 20.519531 -105 19.078125 -105 C 18 -105 16.921875 -104.761719 15.960938 -103.921875 L 12.960938 -103.921875 C 10.558594 -103.800781 8.160156 -103.679688 6.359375 -103.441406 L 1.800781 -102.71875 C 1.441406 -102.71875 0.839844 -102.601562 0.480469 -102.480469 C 0.121094 -102.480469 -0.121094 -102.359375 -0.121094 -102.359375 C -0.839844 -102 -1.320312 -101.640625 -1.078125 -100.921875 C -0.960938 -100.078125 -0.238281 -99.71875 0.359375 -99.71875 C 0.480469 -99.71875 0.839844 -99.839844 0.960938 -99.960938 L 0.839844 -99.839844 C 0.960938 -99.839844 1.078125 -99.839844 1.199219 -99.960938 L 1.320312 -99.960938 C 1.558594 -99.960938 1.921875 -100.078125 2.160156 -100.078125 L 6.71875 -100.800781 C 7.078125 -100.800781 7.679688 -100.921875 8.28125 -100.921875 C 9.71875 -101.039062 11.398438 -101.160156 12.960938 -101.160156 L 14.28125 -101.160156 C 14.039062 -100.679688 14.398438 -101.28125 14.28125 -100.800781 C 14.28125 -100.800781 14.28125 -100.441406 14.160156 -99.601562 L 13.800781 -96.121094 C 13.800781 -95.640625 13.800781 -95.039062 13.679688 -94.441406 L 13.320312 -90.839844 C 13.199219 -90.121094 13.078125 -88.441406 13.078125 -87.480469 C 13.078125 -86.761719 12.960938 -84.960938 12.960938 -83.878906 C 12.71875 -81.238281 12.601562 -78.480469 12.480469 -75.480469 C 12.480469 -72.601562 12.359375 -69.480469 12.238281 -66.359375 L 12.238281 -56.640625 C 12.359375 -54.121094 12.480469 -51.480469 12.480469 -48.960938 L 12.480469 -46.441406 L 12.71875 -41.160156 C 12.839844 -39.480469 12.960938 -37.800781 12.960938 -36.121094 C 13.078125 -35.640625 13.078125 -35.398438 13.078125 -35.039062 L 13.078125 -33.71875 C 13.078125 -33.238281 13.199219 -32.878906 13.199219 -32.519531 L 13.199219 -31.441406 C 13.199219 -30.601562 13.320312 -29.519531 13.441406 -28.800781 L 14.039062 -21.71875 C 14.28125 -20.398438 14.398438 -18.960938 14.519531 -17.640625 L 15 -13.679688 L 15 -13.199219 L 15.960938 -6.238281 C 16.199219 -4.921875 16.320312 -3.359375 16.558594 -2.28125 L 17.519531 3 C 18 6 18.238281 7.679688 18.238281 7.679688 C 18.359375 8.28125 18.238281 8.519531 18.480469 9 C 17.640625 9.121094 17.761719 9 17.160156 9.238281 L 14.039062 10.199219 C 12.960938 10.679688 11.878906 11.039062 10.800781 11.160156 C 10.078125 11.398438 9.960938 11.519531 9.960938 11.519531 C 9.121094 12 8.519531 12.601562 8.878906 13.320312 L 8.761719 13.199219 C 8.878906 13.800781 9.359375 14.160156 9.960938 14.160156 C 10.078125 14.160156 10.320312 14.160156 10.558594 14.039062 L 10.441406 14.160156 C 10.441406 14.160156 10.921875 14.039062 11.761719 13.800781 C 12.121094 13.679688 12.839844 13.679688 13.320312 13.441406 C 13.800781 13.320312 14.160156 13.078125 14.761719 12.960938 L 20.519531 11.039062 C 21.238281 11.519531 21.960938 11.761719 22.921875 11.761719 C 23.160156 11.761719 23.519531 11.761719 23.878906 11.640625 C 25.078125 11.398438 26.28125 10.441406 27 9.480469 C 27.71875 9.359375 28.199219 9.238281 28.558594 9.238281 C 28.800781 9.238281 29.398438 9.121094 29.640625 9.121094 C 30.121094 9 30.359375 9 30.601562 9 L 32.878906 9 C 33.121094 9 33.359375 9 33.71875 9.121094 C 34.441406 9.121094 35.039062 9.238281 35.519531 9.359375 C 36 9.359375 36.480469 9.480469 36.839844 9.601562 C 37.800781 9.71875 38.039062 9.839844 38.039062 9.839844 C 38.878906 9.839844 39.480469 9.480469 39.839844 8.878906 C 39.839844 8.160156 39.359375 7.558594 38.761719 7.320312 C 38.761719 7.320312 38.160156 7.199219 37.558594 6.960938 C 37.320312 6.960938 36.359375 6.839844 36.121094 6.71875 C 35.878906 6.71875 34.441406 6.601562 34.199219 6.480469 L 32.28125 6.480469 C 32.039062 6.480469 31.921875 6.359375 31.800781 6.359375 C 31.320312 6.359375 30.71875 6.359375 30.359375 6.480469 L 29.160156 6.480469 C 28.921875 6.480469 28.199219 6.71875 27.839844 6.71875 C 27.960938 6.238281 27.839844 6.601562 27.71875 6.121094 C 27.71875 6 27.480469 4.199219 27 1.558594 L 26.039062 -3.601562 L 25.320312 -9 L 25.320312 -8.878906 L 25.078125 -10.320312 C 25.078125 -10.921875 25.078125 -11.640625 24.960938 -12.121094 L 24.71875 -14.28125 C 24.480469 -15.480469 24.359375 -16.800781 24.238281 -18.238281 C 24.238281 -18.960938 24.121094 -19.800781 24 -20.398438 L 23.761719 -22.800781 C 23.519531 -24.238281 23.398438 -25.800781 23.28125 -27.238281 C 23.160156 -28.078125 23.039062 -28.800781 23.039062 -29.640625 C 22.921875 -30.480469 22.921875 -31.199219 22.921875 -32.039062 L 22.921875 -33 C 22.921875 -33.359375 22.800781 -34.078125 22.800781 -34.558594 C 22.558594 -35.160156 22.558594 -36.238281 22.558594 -36.839844 L 22.320312 -41.761719 C 22.199219 -43.441406 22.078125 -45 22.078125 -46.679688 C 22.078125 -47.519531 21.960938 -48.359375 21.960938 -49.199219 L 21.960938 -51.601562 C 21.960938 -53.039062 21.960938 -55.199219 21.839844 -56.640625 L 21.839844 -66.960938 C 21.960938 -69.839844 22.078125 -72.601562 22.078125 -75.238281 C 22.199219 -78.121094 22.320312 -80.761719 22.558594 -83.160156 C 22.558594 -83.761719 22.679688 -84.601562 22.679688 -85.199219 L 22.679688 -86.761719 C 22.800781 -87.960938 22.921875 -88.800781 22.921875 -89.878906 L 23.398438 -94.679688 L 23.398438 -95.160156 C 23.519531 -96.121094 23.761719 -97.679688 23.761719 -98.519531 C 23.878906 -99.121094 24 -99.601562 24 -99.601562 C 24 -100.078125 24 -100.558594 23.878906 -101.039062 C 27.238281 -100.800781 31.199219 -100.199219 33.839844 -99.480469 L 36.359375 -98.878906 L 37.320312 -98.28125 C 37.320312 -98.28125 37.679688 -98.160156 37.800781 -98.160156 C 38.039062 -98.039062 38.28125 -97.800781 38.519531 -97.558594 L 38.28125 -98.160156 L 38.519531 -97.800781 C 38.519531 -97.199219 39.121094 -96.839844 39.71875 -96.839844 C 39.960938 -96.839844 40.320312 -96.960938 40.679688 -97.078125 C 41.160156 -97.558594 41.160156 -98.160156 40.921875 -98.761719 Z M 40.558594 -99.238281 "/></g></g></g><g fill="#4c3575" fill-opacity="1"><g transform="translate(275.210252, 314.999979)"><g><path d="M 57.71875 -25.320312 C 57.238281 -25.320312 56.761719 -24.960938 56.761719 -24.480469 C 56.761719 -24.480469 56.761719 -23.761719 56.519531 -22.199219 C 55.558594 -11.878906 49.558594 10.320312 36.238281 10.320312 C 34.558594 10.320312 32.878906 9.960938 31.320312 9.359375 C 30.839844 9.238281 30.480469 9 29.761719 8.640625 L 28.199219 7.800781 C 27 7.199219 25.921875 6.601562 24.839844 5.761719 L 24.960938 5.878906 L 24.960938 6 C 12.480469 -5.039062 10.441406 -21 10.441406 -36.601562 C 10.558594 -39.601562 10.679688 -43.441406 10.921875 -46.441406 L 12.121094 -56.160156 C 13.199219 -61.558594 14.398438 -66.839844 16.199219 -72 L 18 -77.28125 C 18.71875 -79.199219 19.199219 -81 20.039062 -82.800781 C 21.960938 -87.359375 25.558594 -93 30.839844 -93.839844 C 32.039062 -93.960938 33.71875 -94.078125 34.800781 -94.078125 C 38.640625 -94.078125 41.761719 -93.480469 45.238281 -91.679688 L 45.121094 -91.679688 C 51.960938 -87.359375 54.960938 -79.199219 55.558594 -71.398438 L 55.921875 -69 C 55.921875 -68.640625 56.398438 -68.28125 56.761719 -68.28125 L 57.71875 -68.398438 C 58.199219 -68.398438 58.679688 -68.878906 58.558594 -69.238281 C 58.558594 -69.238281 58.441406 -70.558594 58.199219 -72.121094 L 57.839844 -73.441406 C 57 -78.839844 55.078125 -84.480469 51.601562 -88.800781 L 51.71875 -88.800781 C 47.160156 -94.558594 40.441406 -96.71875 33.359375 -96.71875 C 22.320312 -96.71875 13.441406 -87 8.519531 -78 C 5.398438 -72.480469 3 -64.320312 1.800781 -58.078125 C 0.960938 -54.839844 0.480469 -51.121094 0 -47.519531 C -0.238281 -43.921875 -0.480469 -40.320312 -0.480469 -36.601562 C -0.480469 -23.039062 2.640625 -6 11.878906 4.679688 C 14.28125 7.441406 17.28125 9.601562 20.398438 11.519531 C 22.441406 12.601562 23.878906 13.199219 25.199219 13.679688 C 25.558594 13.679688 25.921875 13.800781 26.039062 13.800781 L 26.640625 14.039062 C 26.761719 14.039062 27.121094 14.160156 27.480469 14.28125 C 28.800781 14.519531 30.359375 14.640625 31.800781 14.640625 C 34.558594 14.640625 37.320312 14.039062 39.839844 13.078125 L 39.839844 13.199219 C 42.480469 12.121094 44.878906 10.199219 46.921875 8.28125 L 48.601562 6.238281 C 47.761719 7.199219 53.28125 -1.921875 53.878906 -3.359375 C 54 -3.71875 54.238281 -3.839844 54.359375 -4.199219 C 55.921875 -8.160156 57 -11.640625 57.601562 -14.761719 C 58.078125 -16.558594 58.558594 -18.601562 58.800781 -20.160156 L 59.160156 -21.359375 C 59.398438 -22.921875 59.519531 -24.238281 59.519531 -24.238281 C 59.640625 -24.71875 59.160156 -25.199219 58.679688 -25.199219 Z M 51.121094 2.640625 C 51 2.640625 51 2.761719 51 2.761719 Z M 51.121094 2.640625 "/></g></g></g></svg>